<svg t="1650263530212" class="icon" viewBox="0 0 1024 1024" version="1.1" xmlns="http://www.w3.org/2000/svg" p-id="16856" width="200" height="200"><path d="M892.373 833.493L826.24 556.16a85.333 85.333 0 0 0-82.987-65.493h-23.04c-14.08 21.333-29.44 42.666-45.44 64h68.48a21.333 21.333 0 0 1 21.334 16.426l66.133 277.334a21.333 21.333 0 0 1-21.333 26.24H214.613a21.333 21.333 0 0 1-21.333-26.24l66.133-277.334a21.333 21.333 0 0 1 21.334-16.426h66.56c-16-21.334-31.36-42.667-45.44-64h-21.334a85.333 85.333 0 0 0-82.986 65.493l-66.134 277.333a85.333 85.333 0 0 0 83.2 105.174h594.774a85.333 85.333 0 0 0 82.986-105.174z" p-id="16857" fill="#bfbfbf"></path><path d="M512 106.667A213.333 213.333 0 0 1 725.333 320c0 90.88-142.933 257.067-213.333 324.267C441.6 576 298.667 409.813 298.667 320A213.333 213.333 0 0 1 512 106.667m0-64A277.333 277.333 0 0 0 234.667 320c0 152.533 260.053 405.333 277.333 405.333S789.333 471.68 789.333 320A277.333 277.333 0 0 0 512 42.667z" p-id="16858" fill="#bfbfbf"></path><path d="M512 269.227A49.707 49.707 0 1 1 461.227 320 49.92 49.92 0 0 1 512 269.227m0-64A113.707 113.707 0 1 0 624.853 320 113.707 113.707 0 0 0 512 205.227z" p-id="16859" fill="#bfbfbf"></path></svg>
