<svg t="1650682761159" class="icon" viewBox="0 0 1024 1024" version="1.1" xmlns="http://www.w3.org/2000/svg" p-id="2030" width="200" height="200"><path d="M970.296891 531.869536l-0.793062-245.3745c0 0-3.594875-73.835635-68.066235-73.835635l-682.776502 0.911766-15.051811-36.226063c0 0-15.246239-107.796098-88.63162-107.796098 0 0-88.649016 0-88.649016 106.172111l74.343195-0.109494c0 0 91.01797 517.018294 91.01797 532.596084 0 19.543102 15.910365 70.701249 35.553751 70.701249l671.559019 0c19.652596 0 35.56296-33.478486 35.56296-53.021587 0-19.523659-15.910365-53.038984-35.56296-53.038984l-622.620423 0-17.679661-70.499657 642.199341-2.803859C900.700813 599.546915 970.296891 600.358397 970.296891 531.869536zM329.545528 496.056889c0 19.533892-15.920598 35.368532-35.57217 35.368532l-1.115404 0c-19.652596 0-35.580357-15.835663-35.580357-35.368532l0-35.341926c0-19.531845 15.927761-35.368532 35.580357-35.368532l1.115404 0c19.652596 0 35.57217 15.836687 35.57217 35.368532L329.545528 496.056889zM329.545528 354.62574c0 19.543102-15.920598 35.368532-35.57217 35.368532l-35.582403 0c-19.643386 0-35.580357-15.82543-35.580357-35.368532l0-35.352159c0-19.531845 15.936971-35.359322 35.580357-35.359322l35.582403 0c19.652596 0 35.57217 15.827477 35.57217 35.359322L329.545528 354.62574zM471.852628 496.056889c0 19.533892-15.920598 35.368532-35.57217 35.368532l-35.57217 0c-19.652596 0-35.582403-15.835663-35.582403-35.368532l0-35.341926c0-19.531845 15.929808-35.368532 35.582403-35.368532l35.57217 0c19.652596 0 35.57217 15.836687 35.57217 35.368532L471.852628 496.056889zM471.852628 354.62574c0 19.543102-15.920598 35.368532-35.57217 35.368532l-35.57217 0c-19.652596 0-35.582403-15.82543-35.582403-35.368532l0-35.352159c0-19.531845 15.929808-35.359322 35.582403-35.359322l35.57217 0c19.652596 0 35.57217 15.827477 35.57217 35.359322L471.852628 354.62574zM614.167914 496.056889c0 19.533892-15.927761 35.368532-35.580357 35.368532l-35.582403 0c-19.643386 0-35.57217-15.835663-35.57217-35.368532l0-35.341926c0-19.531845 15.929808-35.368532 35.57217-35.368532l35.582403 0c19.652596 0 35.580357 15.836687 35.580357 35.368532L614.167914 496.056889zM614.167914 354.62574c0 19.543102-15.927761 35.368532-35.580357 35.368532l-35.582403 0c-19.643386 0-35.57217-15.82543-35.57217-35.368532l0-35.352159c0-19.531845 15.929808-35.359322 35.57217-35.359322l35.582403 0c19.652596 0 35.580357 15.827477 35.580357 35.359322L614.167914 354.62574zM756.475014 496.056889c0 19.533892-15.927761 35.368532-35.580357 35.368532l-35.56296 0c-19.652596 0-35.582403-15.835663-35.582403-35.368532l0-35.341926c0-19.531845 15.929808-35.368532 35.582403-35.368532l35.56296 0c19.652596 0 35.580357 15.836687 35.580357 35.368532L756.475014 496.056889zM756.475014 354.62574c0 19.543102-15.927761 35.368532-35.580357 35.368532l-35.56296 0c-19.652596 0-35.582403-15.82543-35.582403-35.368532l0-35.352159c0-19.531845 15.929808-35.359322 35.582403-35.359322l35.56296 0c19.652596 0 35.580357 15.827477 35.580357 35.359322L756.475014 354.62574zM898.783137 496.056889c0 19.533892-15.927761 35.368532-35.56296 35.368532l-35.580357 0c-19.654642 0-35.582403-15.835663-35.582403-35.368532l0-35.341926c0-19.531845 15.927761-35.368532 35.582403-35.368532l35.580357 0c19.635199 0 35.56296 15.836687 35.56296 35.368532L898.783137 496.056889zM898.783137 354.62574c0 19.543102-15.927761 35.368532-35.56296 35.368532l-35.580357 0c-19.654642 0-35.582403-15.82543-35.582403-35.368532l0-35.352159c0-19.531845 15.927761-35.359322 35.582403-35.359322l35.580357 0c19.635199 0 35.56296 15.827477 35.56296 35.359322L898.783137 354.62574zM720.895681 814.288744c-39.895639 0-72.251557 31.04711-72.251557 70.702272 0 39.693024 32.355919 71.845305 72.251557 71.845305 39.913035 0 72.268954-32.152281 72.268954-71.845305C793.163611 845.335854 760.807692 814.288744 720.895681 814.288744zM327.33314 814.288744c-39.915082 0-70.065775 29.940916-70.065775 69.614497s30.150694 71.826885 70.065775 71.826885c39.904849 0 72.268954-32.152281 72.268954-71.826885S367.237989 814.288744 327.33314 814.288744z" p-id="2031" fill="#bfbfbf"></path></svg>
