<svg t="1650263372994" class="icon" viewBox="0 0 1024 1024" version="1.1" xmlns="http://www.w3.org/2000/svg" p-id="8432" width="200" height="200"><path d="M830.72 256H714.667v-42.667a160.213 160.213 0 0 0-160-160h-85.334a160.213 160.213 0 0 0-160 160V256H193.28a86.613 86.613 0 0 0-86.613 86.613v509.44a86.613 86.613 0 0 0 86.613 86.614h637.44a86.613 86.613 0 0 0 86.613-86.614v-509.44A86.613 86.613 0 0 0 830.72 256z m-457.387-42.667a96 96 0 0 1 96-96h85.334a96 96 0 0 1 96 96V256H373.333z m480 638.72a22.827 22.827 0 0 1-22.613 22.614H193.28a22.827 22.827 0 0 1-22.613-22.614v-509.44A22.827 22.827 0 0 1 193.28 320h116.053v64a32 32 0 0 0 64 0v-64h277.334v64a32 32 0 0 0 64 0v-64H830.72a22.827 22.827 0 0 1 22.613 22.613z" p-id="8433" fill="#bfbfbf"></path><path d="M584.107 480.213a129.92 129.92 0 0 0-72.107 16 128 128 0 0 0-72.32-16A117.333 117.333 0 0 0 331.093 590.08c-10.453 95.787 123.52 181.547 164.694 205.44a32 32 0 0 0 32.213 0c41.173-23.893 175.147-109.653 164.693-205.44a117.333 117.333 0 0 0-108.586-109.867zM512 730.667c-62.08-39.04-121.387-94.294-117.12-133.547a54.4 54.4 0 0 1 49.28-52.907H448a60.8 60.8 0 0 1 40.533 14.294l1.28 1.28a32.213 32.213 0 0 0 42.667 0 65.493 65.493 0 0 1 46.507-14.72 54.4 54.4 0 0 1 50.133 52.266c4.267 39.04-55.04 94.294-117.12 133.334z" p-id="8434" fill="#bfbfbf"></path></svg>
