<svg t="1650263203354" class="icon" viewBox="0 0 1024 1024" version="1.1" xmlns="http://www.w3.org/2000/svg" p-id="3667" data-spm-anchor-id="a313x.7781069.0.i2" width="200" height="200"><path d="M716.988186 241.808278c0 12.155854 5.002944 24.240077 13.610996 32.849152 8.579399 8.593725 20.677948 13.595646 32.834826 13.595646s24.254404-5.001921 32.833803-13.595646c8.609075-8.608052 13.610996-20.693298 13.610996-32.849152 0-12.172227-5.001921-24.255427-13.610996-32.849152-8.579399-8.593725-20.676925-13.610996-32.833803-13.610996s-24.255427 5.016247-32.834826 13.610996C721.99113 217.552851 716.988186 229.636051 716.988186 241.808278L716.988186 241.808278zM716.988186 241.808278" p-id="3668" fill="#bfbfbf"></path><path d="M593.50378 164.404374c0 14.585183 5.990434 29.097712 16.314571 39.406498 10.324136 10.32516 24.836665 16.32992 39.407522 16.32992 14.59951 0 29.111015-6.004761 39.436174-16.32992 10.324136-10.308787 16.314571-24.821315 16.314571-39.406498 0-14.600533-5.990434-29.097712-16.314571-39.421848-10.32516-10.308787-24.836665-16.328897-39.436174-16.328897-14.569834 0-29.083385 6.02011-39.407522 16.328897C599.495238 135.307685 593.50378 149.804864 593.50378 164.404374L593.50378 164.404374zM593.50378 164.404374" p-id="3669" fill="#bfbfbf"></path><path d="M423.544901 139.611711c0 17.027815 7.008624 33.954323 19.048845 45.980217 12.040221 12.040221 28.966729 19.048845 45.979194 19.048845 17.013489 0 33.939997-7.009647 45.980217-19.048845 12.041244-12.025894 19.048845-28.952402 19.048845-45.980217s-7.008624-33.939997-19.048845-45.980217c-12.040221-12.040221-28.966729-19.048845-45.980217-19.048845-17.012466 0-33.938973 7.009647-45.979194 19.048845C430.553525 105.671715 423.544901 122.583896 423.544901 139.611711L423.544901 139.611711zM423.544901 139.611711" p-id="3670" fill="#bfbfbf"></path><path d="M214.120171 148.903332c0 21.88545 9.016351 43.638893 24.487717 59.124586 15.501042 15.47239 37.254485 24.487717 59.155285 24.487717 21.8701 0 43.623543-9.015328 59.095933-24.487717 15.500019-15.486716 24.487717-37.240159 24.487717-59.124586 0-21.884426-8.986675-43.638893-24.487717-59.124586-15.47239-15.47239-37.225833-24.487717-59.095933-24.487717-21.899776 0-43.653219 9.015328-59.155285 24.487717C223.136521 105.264439 214.120171 127.018905 214.120171 148.903332L214.120171 148.903332zM214.120171 148.903332" p-id="3671" fill="#bfbfbf"></path><path d="M604.58414 252.902964l-0.146333 0c-1.77339-0.042979-3.432169-0.261966-5.14723-0.261966-1.77339 0-3.460822 0.218988-5.14723 0.261966L398.736888 252.902964c-1.744737-0.058328-3.432169-0.261966-5.118578-0.261966-1.744737 0-3.432169 0.203638-5.176906 0.261966l-3.664459 0 0 0.203638c-74.423013 4.565992-133.48927 66.279542-133.48927 141.850705 0 51.010791 26.988678 95.652524 67.355037 120.794134l0 0.146333 2.705622 1.629103c0 0 80.355119 42.72201-2.705622 245.137093l0.058328 0c-6.776334 16.635889-10.586103 34.695197-10.586103 53.716412 0 78.580706 63.807235 142.329613 142.330636 142.329613 34.463929 0 66.018599-12.272511 90.679255-32.630165l0 0.028653 0.028653 0.202615c141.981688-116.824729 233.126548-293.007357 235.772818-490.478847 0.058328-1.77339 0.261966-3.489474 0.261966-5.278213C777.18929 334.130963 700.296015 255.738545 604.58414 252.902964L604.58414 252.902964zM604.58414 252.902964" p-id="3672" fill="#bfbfbf" data-spm-anchor-id="a313x.7781069.0.i3" class="selected"></path></svg>
