<svg t="1650263288266" class="icon" viewBox="0 0 1024 1024" version="1.1" xmlns="http://www.w3.org/2000/svg" p-id="6223" data-spm-anchor-id="a313x.7781069.0.i9" width="200" height="200"><path d="M503.369143 38.546286L117.028571 262.948571a14.628571 14.628571 0 0 0-7.314285 12.653715v465.188571a14.628571 14.628571 0 0 0 7.314285 12.726857l393.142858 228.425143a0.585143 0.585143 0 0 0 0.731428-0.219428l394.020572-228.205715a14.628571 14.628571 0 0 0 7.314285-12.653714v-465.188571a14.628571 14.628571 0 0 0-7.314285-12.726858L517.997714 38.546286a14.628571 14.628571 0 0 0-14.628571 0z m2.925714 50.980571L635.611429 163.108571 315.245714 383.488 168.594286 292.278857l337.773714-202.752zM487.789714 915.748571l-332.8-193.389714V335.872l160.036572 92.891429V612.205714h51.346285v-153.6l121.417143 70.582857v386.486858z m20.114286-423.350857l-139.702857-90.697143L678.765714 196.022857l161.792 92.672-332.8 203.556572z m359.131429 229.961143l-332.8 193.389714V529.115429l332.8-193.243429v386.413714z" fill="#bfbfbf" p-id="6224"></path></svg>
