<svg t="1650263445948" class="icon" viewBox="0 0 1024 1024" version="1.1" xmlns="http://www.w3.org/2000/svg" p-id="13099" width="200" height="200"><path d="M998.428444 381.112889l-469.333333-353.180445c-0.469333-0.355556-0.981333-0.568889-1.479111-0.896a28.017778 28.017778 0 0 0-2.417778-1.464888 29.909333 29.909333 0 0 0-10.453333-3.128889 30.705778 30.705778 0 0 0-5.475556-0.014223 28.771556 28.771556 0 0 0-13.112889 4.707556c-0.412444 0.284444-0.867556 0.469333-1.28 0.782222l-469.333333 353.180445a28.458667 28.458667 0 0 0 34.204445 45.468444l73.656888-55.424V854.186667c0 111.701333 29.141333 147.555556 136.803556 147.555555h483.555556c107.662222 0 147.640889-35.854222 147.640888-147.555555V379.320889l62.805334 47.260444c5.12 3.854222 11.121778 5.717333 17.080889 5.717334a28.444444 28.444444 0 0 0 17.137777-51.185778zM443.747556 674.673778H580.266667c31.288889 0 36.707556 0.554667 36.707555 28.8v241.422222H417.877333V703.473778c0-28.245333-5.418667-28.8 25.870223-28.8z m400.782222-327.111111v506.666666c0 81.365333-14.193778 90.666667-90.752 90.666667h-108.359111V703.473778c0-48.967111-23.850667-57.244444-65.152-57.244445h-136.519111c-41.301333 0-54.314667 8.277333-54.314667 57.244445v241.422222H270.222222c-76.572444 0-79.914667-9.301333-79.914666-90.666667V347.562667c0-5.788444-1.749333-11.150222-4.721778-15.644445L512 86.272l334.336 251.591111a28.231111 28.231111 0 0 0-1.806222 9.699556z" fill="#bfbfbf" p-id="13100"></path><path d="M435.370667 230.499556L250.055111 373.617778c-3.512889 2.688-2.858667 6.855111-2.858667 11.278222v161.777778a14.222222 14.222222 0 1 0 28.444445 0V391.907556l178.730667-138.837334c6.243556-4.778667 5.034667-13.710222 0.256-19.939555a13.425778 13.425778 0 0 0-19.256889-2.631111zM261.418667 589.340444a14.222222 14.222222 0 0 0-14.222223 14.222223v14.222222a14.222222 14.222222 0 1 0 28.444445 0v-14.222222a14.222222 14.222222 0 0 0-14.222222-14.222223z" fill="#bfbfbf" p-id="13101"></path></svg>
