<svg t="1650263488518" class="icon" viewBox="0 0 1024 1024" version="1.1" xmlns="http://www.w3.org/2000/svg" p-id="14650" width="200" height="200"><path d="M511.656169 81.518618c-245.792009 0-428.544263 201.248514-428.544263 436.469769 0 20.75265 4.564969 82.371032 11.870352 99.737562l5.694699 21.7647c1.760087 10.998495 10.970866 19.589151 22.570042 19.589151 10.215666 0 20.557198-8.247848 21.962198-17.540492l0.563842-5.091972-2.761903-15.899108c-3.853771-16.928554-12.226462-80.751139-12.226462-102.558817 0-209.074759 162.734338-392.476813 380.870474-389.153114 210.618928 3.198855 381.411803 169.518858 381.411803 378.593618 0 209.05634-170.793898 378.574175-381.411803 378.574175-75.057463 0-144.879692-21.828145-203.898877-59.005882-0.106424 0.074701-0.2415 0.163729-0.350994 0.2415-10.188037-5.068436-23.5166-3.589758-33.249265 4.641717-25.316595 23.528879-50.386574 37.867446-71.118757 46.620807 5.740748-39.59581 7.02909-89.065502 5.086855-109.450784 0-3.743254-0.713244-7.600095-2.471284-11.32186-5.738701-12.325723-19.261693-18.232247-30.191626-13.211906-5.275143 2.40477-8.918114 6.919597-10.719132 12.292977l-1.213641 7.652284c0 1.892093 0.167822 3.78521 0.607844 5.708002 1.780553 21.035082 6.762007 77.193103-17.188474 126.655631-1.696642 3.983731-2.463098 8.204869-2.424212 12.370749-0.024559 0.130983-0.065492 0.257873-0.086981 0.391926-2.219551 13.025665 7.118118 25.446555 20.872377 27.746948 0.951675 0.157589 1.893116 0.242524 2.827395 0.288572 3.37998 0.303922 6.740518-0.151449 9.893324-1.309832 27.868721-5.812379 91.071182-33.57877 124.253932-57.370639 61.930491 34.542724 133.278469 54.386678 209.374588 54.386678 236.997716 0 429.086615-190.68697 429.084569-425.90311C940.740738 272.196379 748.652861 81.518618 511.656169 81.518618z" p-id="14651" fill="#bfbfbf"></path><path d="M226.169089 426.224428 226.169089 595.07609l36.719296 0 0-99.638301c0-6.085602 0.927115-11.836583 2.902096-17.320481 1.912559-5.418406 4.618181-10.168594 8.043187-14.178931 3.430122-4.010337 7.652284-7.224542 12.596899-9.495258 4.943592-2.276856 10.54824-3.413749 16.745383-3.413749 10.945283 0 18.989493 3.010567 24.128537 8.965186 5.140067 6.014994 7.91118 15.647375 8.375761 28.888957L335.680249 595.07609l36.719296 0L372.399545 479.117079c0-19.190061-5.206582-33.565467-15.754822-43.13338-10.547217-9.56075-24.923646-14.377452-43.183522-14.377452-10.945283 0-20.901029 2.672876-29.934776 8.025791-9.032724 5.352915-16.286941 12.704346-21.890566 22.065552l-0.660032-0.669242 0-24.804942L226.169089 426.223405z" p-id="14652" fill="#bfbfbf"></path><path d="M559.64923 483.668745c-3.097548-11.904121-8.106632-22.403243-14.969946-31.56695-6.856152-9.16166-15.493879-16.515139-25.910113-22.065552-10.41521-5.616928-22.152533-8.363482-35.270295-8.363482-12.459776 0-23.600511 2.342348-33.491789 7.15905-9.894348 4.745071-18.328437 11.233855-25.254174 19.392676-6.989181 8.157797-12.329816 17.654079-16.08842 28.41926-3.75758 10.836813-5.603625 22.203698-5.603625 34.174334 0 13.039991 1.714038 25.009603 5.278213 35.913954 3.490497 10.896164 8.766664 20.193925 15.752776 28.085662 6.994298 7.888667 15.498996 13.972223 25.584702 18.321274 10.083659 4.348028 21.688975 6.556323 34.81083 6.556323 8.965186 0 17.667382-1.269923 25.91216-3.745301 8.239662-2.538823 15.754822-6.218632 22.414499-11.168364 6.595208-4.882194 12.328793-10.901281 17.012466-18.122753 4.748141-7.157004 8.106632-15.315824 10.020214-24.479531l-34.80776 0c-3.234671 9.363252-8.114818 16.388249-14.638395 21.067828-6.528694 4.682649-15.165398 7.019881-25.91216 7.019881-7.714705 0-14.374382-1.337461-19.97903-4.076852-5.603625-2.740414-10.151197-6.418176-13.843286-10.969842-3.692089-4.546549-6.398734-9.897418-8.244778-15.97995-1.768273-6.0416-2.666736-12.285814-2.679016-18.790972l122.346489 0C563.537793 507.806491 562.748824 495.505327 559.64923 483.668745zM439.72286 495.770364c0.195451-6.287193 1.449002-12.169157 3.690042-17.654079 2.240017-5.418406 5.273097-10.168594 9.03477-14.178931 3.75758-4.010337 8.30413-7.224542 13.509688-9.495258 5.212722-2.276856 11.076266-3.413749 17.540492-3.413749 6.197142 0 11.867282 1.269923 16.946974 3.745301 5.01113 2.540869 9.296737 5.821589 12.850679 9.830903 3.562129 4.016477 6.333242 8.760524 8.375761 14.179954 2.042519 5.483898 3.295046 11.100826 3.692089 16.984836L439.72286 495.76934z" p-id="14653" fill="#bfbfbf"></path><path d="M695.730535 469.688335 696.390567 469.688335 727.311811 595.143629 765.027807 595.143629 817.181631 426.224428 779.796162 426.224428 745.972822 552.345893 745.313813 552.345893 715.38006 426.224428 678.328189 426.224428 647.075395 552.345893 646.415362 552.345893 613.910041 426.224428 574.945611 426.224428 626.505917 595.143629 665.137773 595.143629Z" p-id="14654" fill="#bfbfbf"></path></svg>
