<svg t="1650263665912" class="icon" viewBox="0 0 1024 1024" version="1.1" xmlns="http://www.w3.org/2000/svg" p-id="19098" width="200" height="200"><path d="M384 480H181.333333C128 480 85.333333 437.333333 85.333333 384V181.333333C85.333333 128 130.133333 85.333333 181.333333 85.333333H384c53.333333 0 96 42.666667 96 96V384c2.133333 51.2-40.533333 96-96 96 2.133333 0 0 0 0 0zM181.333333 149.333333C164.266667 149.333333 149.333333 162.133333 149.333333 181.333333V384c0 17.066667 14.933333 32 32 32H384c17.066667 0 32-14.933333 32-32V181.333333c0-19.2-12.8-32-32-32H181.333333zM384 938.666667H181.333333C130.133333 938.666667 85.333333 896 85.333333 842.666667V640c0-53.333333 42.666667-96 96-96H384c53.333333 0 96 42.666667 96 96v202.666667c0 53.333333-42.666667 96-96 96zM181.333333 608c-17.066667 0-32 14.933333-32 32v202.666667c0 19.2 14.933333 32 32 32H384c17.066667 0 32-14.933333 32-32V640c0-17.066667-14.933333-32-32-32H181.333333zM906.666667 211.2H612.266667c-17.066667 0-32-14.933333-32-32s14.933333-32 32-32h294.4c17.066667 0 32 14.933333 32 32s-14.933333 32-32 32zM906.666667 418.133333H612.266667c-17.066667 0-32-14.933333-32-32s14.933333-32 32-32h294.4c17.066667 0 32 14.933333 32 32s-14.933333 32-32 32zM906.666667 669.866667H612.266667c-17.066667 0-32-14.933333-32-32s14.933333-32 32-32h294.4c17.066667 0 32 14.933333 32 32s-14.933333 32-32 32zM906.666667 876.8H612.266667c-17.066667 0-32-14.933333-32-32s14.933333-32 32-32h294.4c17.066667 0 32 14.933333 32 32 0 19.2-14.933333 32-32 32z" p-id="19099" fill="#bfbfbf"></path></svg>
